<svg width="1696" height="1328" viewBox="0 0 1696 1328" fill="none" xmlns="http://www.w3.org/2000/svg">
<rect width="1696" height="1328" fill="#E5E5E5"/>
<g clip-path="url(#clip0)">
<path d="M121.349 1288.96C114.398 1296.77 115.791 1307.94 109.634 1316.19C104.297 1323.35 94.239 1327.1 87.5634 1333.44C85.4333 1335.54 83.5343 1337.8 81.889 1340.18C75.6964 1348.76 70.663 1359.75 76.7619 1368.38C81.6681 1375.31 91.9806 1378.02 101.438 1379.87C113.393 1382.21 125.813 1384.07 137.905 1382.29C149.997 1380.51 161.815 1374.38 166.127 1364.87C166.974 1362.48 167.981 1360.13 169.144 1357.83C175.698 1347.16 196.256 1347.05 202.963 1336.45C207.657 1329.03 203.342 1320.06 199.029 1312.48L185.856 1289.34C181.484 1281.66 163.761 1286.08 154.522 1284.23C142.473 1281.83 130.017 1279.19 121.349 1288.96Z" fill="#2F2E41"/>
<path d="M1292 785V1166.96L1369.23 1271.08L1375.11 1279H1679.84L1686 785H1292Z" fill="#E6E6E6"/>
<path opacity="0.1" d="M1292 785V1166.89L1369.26 1271L1374 785H1292Z" fill="black"/>
<path d="M554 775V1156.96L476.573 1261.08L470.68 1269H165.173L159 775H554Z" fill="#E6E6E6"/>
<path opacity="0.1" d="M554 775V1156.9L476.741 1261L472 775H554Z" fill="black"/>
<path d="M1779 767.155V790H119V757L273.274 691H1643.24L1779 767.155Z" fill="#E6E6E6"/>
<path opacity="0.1" d="M1779 767.155V790H119V757L1779 767.155Z" fill="black"/>
<path d="M357.023 882H282.889L252 864H391L357.023 882Z" fill="#3F3D56"/>
<path d="M357.023 955H282.889L252 938H391L357.023 955Z" fill="#3F3D56"/>
<path d="M357.023 1060H282.889L252 1042H391L357.023 1060Z" fill="#3F3D56"/>
<path d="M357.023 1164H282.889L252 1146H391L357.023 1164Z" fill="#3F3D56"/>
<path d="M1488.98 892H1563.11L1594 874H1455L1488.98 892Z" fill="#3F3D56"/>
<path d="M1488.98 966H1563.11L1594 948H1455L1488.98 966Z" fill="#3F3D56"/>
<path d="M1488.98 1070H1563.11L1594 1052H1455L1488.98 1070Z" fill="#3F3D56"/>
<path d="M1488.98 1174H1563.11L1594 1157H1455L1488.98 1174Z" fill="#3F3D56"/>
<path d="M1659.08 144H920.917C917.25 144 913.62 144.618 910.233 145.821C906.846 147.023 903.768 148.786 901.175 151.008C898.583 153.23 896.527 155.868 895.124 158.771C893.721 161.674 893 164.786 893 167.928V594.141C893 597.283 893.721 600.395 895.124 603.298C896.527 606.202 898.583 608.84 901.175 611.062C903.768 613.284 906.846 615.046 910.233 616.249C913.62 617.451 917.25 618.07 920.917 618.069H1201.13L1190.63 675.52C1190.63 675.52 1130.64 702.839 1172.82 703.643C1215.01 704.446 1413.74 703.643 1413.74 703.643C1413.74 703.643 1452.17 703.643 1391.24 674.717L1381.37 618.069H1659.08C1662.75 618.07 1666.38 617.451 1669.77 616.249C1673.15 615.046 1676.23 613.284 1678.82 611.062C1681.42 608.84 1683.47 606.202 1684.88 603.298C1686.28 600.395 1687 597.283 1687 594.141V167.928C1687 164.786 1686.28 161.674 1684.88 158.771C1683.47 155.868 1681.42 153.23 1678.82 151.008C1676.23 148.786 1673.15 147.023 1669.77 145.821C1666.38 144.618 1662.75 144 1659.08 144V144Z" fill="#3F3D56"/>
<path d="M1660 169H919V557H1660V169Z" fill="black"/>
<path d="M1289.5 161C1291.99 161 1294 159.209 1294 157C1294 154.791 1291.99 153 1289.5 153C1287.01 153 1285 154.791 1285 157C1285 159.209 1287.01 161 1289.5 161Z" fill="#F2F2F2"/>
<path d="M1289 602C1298.94 602 1307 595.06 1307 586.5C1307 577.94 1298.94 571 1289 571C1279.06 571 1271 577.94 1271 586.5C1271 595.06 1279.06 602 1289 602Z" fill="#F2F2F2"/>
<path d="M1204 739.477V746H778V740.782L778.586 739.477L789.085 716H1195.29L1204 739.477Z" fill="#3F3D56"/>
<path d="M1367.87 732.743C1367.1 735.51 1364.19 738.43 1357.61 741.191C1334 751.098 1285.99 738.549 1285.99 738.549C1285.99 738.549 1249 733.265 1249 719.394C1250.04 718.797 1251.12 718.257 1252.24 717.776C1262.17 713.368 1295.08 702.493 1353.44 718.236C1357.74 719.369 1361.58 721.481 1364.53 724.337C1365.84 725.417 1366.82 726.742 1367.4 728.203C1367.98 729.664 1368.14 731.22 1367.87 732.743Z" fill="#3F3D56"/>
<path opacity="0.1" d="M1367.87 732.448C1338.91 741.621 1313.1 742.305 1286.61 727.096C1276.59 720.973 1264.46 717.671 1252 717.675C1261.95 713.325 1294.93 702.59 1353.41 718.13C1357.72 719.248 1361.56 721.332 1364.52 724.152C1365.84 725.217 1366.82 726.525 1367.4 727.967C1367.98 729.41 1368.14 730.945 1367.87 732.448Z" fill="black"/>
<path d="M1331.5 727C1337.3 727 1342 725.881 1342 724.5C1342 723.119 1337.3 722 1331.5 722C1325.7 722 1321 723.119 1321 724.5C1321 725.881 1325.7 727 1331.5 727Z" fill="#F2F2F2"/>
<path opacity="0.1" d="M1204 739V746H778V740.4L778.586 739H1204Z" fill="black"/>
<path d="M236.797 0.0594146C232.465 -0.23435 228.127 0.566003 224.358 2.35442C220.657 4.44753 218.324 8.11444 215.944 11.5267C206.84 24.729 194.517 36.226 179.753 45.2895C168.999 51.7958 155.328 59.9082 157.168 71.9041C158.138 75.8657 159.91 79.6638 162.409 83.1389C172.33 99.678 199.401 112.459 196.738 131.332C206.594 117.704 193.411 110.966 203.267 97.3385C207.96 90.8488 216.114 83.5232 223.201 87.5987C225.574 88.9633 227.132 91.4109 229.602 92.6082C235.498 95.4652 241.769 90.0032 246.987 86.1344C264.982 72.7933 290.571 76.2884 312.963 80.4451C323.535 82.4075 335.146 84.9821 341.395 93.3266C349.611 104.298 333.589 116.147 329.541 128.551C329.21 129.608 329.194 130.715 329.495 131.778C329.796 132.841 330.404 133.828 331.267 134.655C332.13 135.482 333.223 136.123 334.452 136.525C335.68 136.927 337.009 137.077 338.323 136.963C345.042 136.415 353.001 135.967 353.399 133.532C361.852 133.78 372.21 132.989 375.832 125.72C376.939 122.843 377.524 119.848 377.569 116.83C378.898 104.618 385.173 93.4774 389.331 81.8548C393.488 70.2323 395.296 56.6114 388.28 46.3068C385.776 42.8782 382.68 39.77 379.088 37.0804C339.275 5.25981 286.93 0.0121809 236.797 0.0594146Z" fill="#2F2E41"/>
<path d="M205.224 154.367C205.224 154.367 213.865 214.016 182.181 218.788C150.498 223.56 210.984 304.684 210.984 304.684L355 319L320.436 223.56C320.436 223.56 297.394 216.402 311.795 168.683C326.197 120.963 205.224 154.367 205.224 154.367Z" fill="#FFB8B8"/>
<path d="M118 1176L129.521 1306H190L172.722 1176H118Z" fill="#FFB8B8"/>
<path d="M561 928.749L569.653 1038L636 1014.25L610.037 924L561 928.749Z" fill="#FFB8B8"/>
<path d="M74 676.601C74 676.601 76.882 814.41 94.1744 859.554C111.467 904.699 108.585 907.075 105.703 914.203C102.821 921.331 99.9385 916.579 99.9385 928.459C99.9385 940.339 94.1745 1128.04 99.9385 1144.68C105.703 1161.31 82.6463 1189.82 99.9385 1192.2C117.231 1194.57 197.928 1192.2 200.81 1177.94C203.692 1163.69 177.754 1158.93 189.282 1149.43C200.81 1139.92 218.103 945.091 218.103 945.091L258.451 809.658L333.385 738.377H491.897L540.892 895.195C540.892 895.195 520.718 940.339 535.128 940.339C549.539 940.339 636 954.595 636 902.323C636 850.05 607.18 695.609 601.415 690.857C595.651 686.105 604.297 669.473 595.651 662.344C587.005 655.216 486.133 605.32 448.667 595.816C411.2 586.312 358.641 575 358.641 575L74 676.601Z" fill="#2F2E41"/>
<path d="M635.981 994.902C635.981 994.902 592.634 983.017 572.406 1018.67C552.177 1054.32 560.847 1063.83 560.847 1063.83C560.847 1063.83 627.312 1082.85 638.871 1073.34C643.9 1069.2 659.869 1067.76 676.307 1067.46C701.343 1067 708.004 1037.87 684.359 1031.08C683.654 1030.88 682.94 1030.7 682.217 1030.55C659.099 1025.8 635.981 994.902 635.981 994.902Z" fill="#2F2E41"/>
<path d="M270.5 194C318.273 194 357 161.988 357 122.5C357 83.0116 318.273 51 270.5 51C222.727 51 184 83.0116 184 122.5C184 161.988 222.727 194 270.5 194Z" fill="#FFB8B8"/>
<path d="M158.018 248.621C158.018 248.621 299.174 272.392 333.743 234.359C368.312 196.326 382.716 341.326 382.716 341.326L400 493.458L374.073 576.655C374.073 576.655 238.679 666.984 195.468 674.115C152.257 681.246 86 686 86 686C86 686 106.165 422.146 106.165 417.392C106.165 412.638 158.018 248.621 158.018 248.621Z" fill="#6C63FF"/>
<path d="M200.805 203.781C200.805 203.781 169.353 188.92 160.698 203.198C152.043 217.475 71.2647 253.168 62.6098 253.168C53.955 253.168 79.9196 450.672 68.3798 474.467C56.8399 498.263 2.02581 671.971 33.7603 686.248C65.4948 700.525 42.4152 671.971 74.1497 707.664C105.884 743.358 261.672 743.357 270.327 729.08C278.981 714.803 201.088 607.723 215.512 507.781C229.937 407.84 253.017 269.825 232.822 250.789C212.628 231.752 200.805 203.781 200.805 203.781Z" fill="#2F2E41"/>
<path d="M305 220.394L309.016 209C309.016 209 428.984 241.786 434.75 263.179C440.517 284.571 437.634 434.318 417.45 446.203C397.267 458.087 368.434 477.103 388.617 505.626C408.8 534.149 431.867 565.049 449.167 567.426C466.467 569.803 498.184 586.442 489.534 603.08C480.884 619.719 377.084 588.819 377.084 588.819C377.084 588.819 307.883 546.034 310.767 479.48C313.65 412.925 305 220.394 305 220.394Z" fill="#2F2E41"/>
<path d="M405.427 501L336.663 607.562C336.663 607.562 236.383 692.812 293.686 702.284C350.989 711.756 382.506 624.138 382.506 624.138L457 536.521L405.427 501Z" fill="#FFB8B8"/>
<path d="M240.919 19.0443C237.432 18.8312 233.938 19.3898 230.799 20.6624C227.962 22.3708 225.623 24.5802 223.954 27.1292C216.26 36.6694 206.231 44.7777 194.511 50.9334C185.762 55.5207 174.64 61.2403 176.136 69.6979C176.949 72.5336 178.395 75.2198 180.401 77.619C188.499 89.3976 191.723 103.03 189.585 116.454L213.641 87.6304C217.459 83.0549 224.093 77.89 229.858 80.7634C231.789 81.7255 233.056 83.4511 235.066 84.2953C239.862 86.3097 244.965 82.4587 249.21 79.731C263.85 70.3249 284.668 72.7891 302.886 75.7198C311.486 77.1034 320.932 78.9186 326.016 84.8018C334.465 94.5786 325.643 108.705 330.574 120C331.954 119.203 333.126 118.186 334.021 117.009C334.916 115.832 335.515 114.519 335.782 113.148C342.66 113.323 351.086 112.766 354.033 107.64C354.929 105.632 355.407 103.512 355.446 101.372C356.527 92.7627 361.633 84.908 365.015 76.7136C368.397 68.5192 369.868 58.9159 364.16 51.6506C362.072 49.189 359.552 46.9967 356.682 45.1457C324.292 22.7107 281.706 19.011 240.919 19.0443Z" fill="#2F2E41"/>
<path d="M406.022 253L432.835 258.895C432.835 258.895 495.235 391.245 480.846 481.82C466.457 572.394 457.823 553.326 457.823 553.326C457.823 553.326 434.801 510.422 383 519.956L406.022 253Z" fill="#2F2E41"/>
<path d="M25 547.697L146.384 702.74C146.384 702.74 221.527 781.454 244.647 745.675C267.768 709.896 163.725 650.264 163.725 650.264L85.692 531L25 547.697Z" fill="#FFB8B8"/>
<path d="M86.1072 257.756L63.0327 253C63.0327 253 16.8836 264.89 5.34632 314.827C-6.19094 364.764 2.46199 564.512 16.8836 566.89C31.3052 569.268 88.1117 532.11 97.2046 539.988C106.297 547.867 77.4542 507.441 86.1071 486.04C94.76 464.638 86.1072 257.756 86.1072 257.756Z" fill="#2F2E41"/>
</g>
<defs>
<clipPath id="clip0">
<rect width="1696" height="1328" fill="white"/>
</clipPath>
</defs>
</svg>
